<svg xmlns="http://www.w3.org/2000/svg" width="256" height="256" viewBox="0 0 100 100"><rect width="100" height="100" rx="0" fill="#f2f2f2"></rect><path fill="#595959" d="M16.66 76.25Q15.91 76.25 15.91 75.50L15.91 75.50L15.91 24.50Q15.91 23.75 16.66 23.75L16.66 23.75L20.49 23.75Q21.24 23.75 21.24 24.50L21.24 24.50L21.24 71.30Q21.24 71.60 21.54 71.60L21.54 71.60L48.01 71.60Q48.76 71.60 48.76 72.35L48.76 72.35L48.76 75.50Q48.76 76.25 48.01 76.25L48.01 76.25L16.66 76.25ZM83.34 23.75Q84.09 23.75 84.09 24.50L84.09 24.50L84.09 27.73Q84.09 28.48 83.34 28.48L83.34 28.48L68.64 28.48Q68.34 28.48 68.34 28.77L68.34 28.77L68.34 75.50Q68.34 76.25 67.59 76.25L67.59 76.25L63.76 76.25Q63.01 76.25 63.01 75.50L63.01 75.50L63.01 28.77Q63.01 28.48 62.71 28.48L62.71 28.48L48.61 28.48Q47.86 28.48 47.86 27.73L47.86 27.73L47.86 24.50Q47.86 23.75 48.61 23.75L48.61 23.75L83.34 23.75Z"></path></svg>